<svg xmlns="http://www.w3.org/2000/svg" viewBox="0 0 384 80" preserveAspectRatio="xMinYMin meet"><path fill="#fff" d="M43.873 12.699C46.606 9.28 48.461 4.69 47.972 0c-4.001.199-8.883 2.64-11.71 6.06-2.538 2.93-4.784 7.712-4.198 12.206 4.49.39 8.978-2.245 11.81-5.567M47.92 19.144c-6.521-.389-12.067 3.701-15.182 3.701-3.116 0-7.885-3.506-13.044-3.411-6.714.098-12.945 3.895-16.352 9.933-7.008 12.079-1.85 29.996 4.966 39.833 3.31 4.867 7.298 10.226 12.553 10.034 4.966-.195 6.912-3.216 12.948-3.216 6.032 0 7.785 3.216 13.041 3.118 5.451-.097 8.859-4.869 12.168-9.74 3.797-5.549 5.351-10.906 5.449-11.2-.098-.097-10.511-4.092-10.608-16.07-.098-10.03 8.176-14.801 8.565-15.097-4.672-6.91-11.972-7.69-14.503-7.885"/><path fill="#fff" d="M115.598 58.881H87.752L81.07 78.627H69.273L95.651 5.569h12.252l26.377 73.058h-12l-6.682-19.746zm-24.96-9.113h22.074L101.827 17.72h-.304L90.638 49.768zM140.503 25.365h10.43v9.062h.253c1.773-6.226 6.531-9.923 12.81-9.923 1.569 0 2.936.253 3.746.406v10.175c-.86-.354-2.784-.607-4.911-.607-7.038 0-11.391 4.71-11.391 12.252v31.897h-10.937V25.365zM207.744 43.693c-1.114-5.671-5.367-10.177-12.505-10.177-8.455 0-14.025 7.037-14.025 18.48 0 11.695 5.62 18.48 14.126 18.48 6.734 0 11.138-3.696 12.404-9.873h10.53c-1.164 11.34-10.227 19.036-23.035 19.036-15.24 0-25.162-10.43-25.162-27.643 0-16.91 9.923-27.593 25.06-27.593 13.72 0 22.074 8.81 23.036 19.29h-10.43zM223.9 63.489c0-9.317 7.14-15.037 19.797-15.746l14.58-.86v-4.101c0-5.924-4-9.468-10.682-9.468-6.329 0-10.278 3.037-11.24 7.797h-10.328c.607-9.62 8.81-16.708 21.973-16.708 12.91 0 21.163 6.835 21.163 17.517v36.707h-10.48v-8.76h-.254c-3.088 5.925-9.821 9.67-16.808 9.67-10.43 0-17.72-6.48-17.72-16.048zm34.378-4.81v-4.202l-13.113.81c-6.532.456-10.227 3.341-10.227 7.898 0 4.657 3.848 7.695 9.72 7.695 7.645 0 13.62-5.265 13.62-12.2zM276.853 51.996c0-16.809 8.91-27.492 22.276-27.492 7.645 0 13.721 3.848 16.707 9.721h.204V5.57h10.986v73.058h-10.632v-9.063h-.203c-3.139 6.075-9.214 9.974-16.96 9.974-13.468 0-22.378-10.734-22.378-27.542zm11.189 0c0 11.239 5.417 18.277 14.075 18.277 8.404 0 14.023-7.139 14.023-18.277 0-11.037-5.619-18.277-14.023-18.277-8.658 0-14.075 7.088-14.075 18.277zM382.956 62.982c-1.519 9.72-10.734 16.657-22.935 16.657-15.644 0-25.111-10.58-25.111-27.39 0-16.707 9.619-27.846 24.656-27.846 14.783 0 23.997 10.43 23.997 26.58v3.747h-37.616v.658c0 9.265 5.568 15.39 14.327 15.39 6.228 0 10.835-3.138 12.303-7.796h10.379zm-36.96-15.897h26.631c-.252-8.15-5.417-13.873-13.061-13.873-7.646 0-13.012 5.823-13.57 13.873z"/></svg>
